#!OML:ASF X:\für Bonn\!DataBase\2005_08_12_Daniel\c3d\Daniel.ASF
:FULLY-SPECIFIED
:DEGREES
326
root 14.824 1.25924 0.844521 -675.975 -86.2066 -155.706
lowerback 25.5077 -4.03554 5.98515
upperback 16.1759 -5.73016 -0.595354
thorax 3.46282 -3.34904 -2.81783
lowerneck 12.5497 5.59802 -5.3919
upperneck 13.9426 6.39997 -1.25897
head 2.24393 2.58623 0.356938
rclavicle 7.07673e-014 -1.82882e-013
rhumerus -24.2588 -27.5087 -78.8472
rradius 11.718
rwrist 55.7844
rhand -10.189 -349.232
rfingers 7.12502
rthumb 15.8016 -378.607
lclavicle 7.07673e-014 -1.82882e-013
lhumerus -385.934 3.07658 -278.707
lradius 31.3286
lwrist -29.4055
lhand -5.1317 354.705
lfingers 7.12502
lthumb 20.6669 383.624
rfemur 167.686 -173.913 192.643
rtibia 73.0631
rfoot 21.8534 4.24674
rtoes 2.23799
lfemur -15.2875 -4.05922 -7.80668
ltibia 73.7729
lfoot 24.7303 2.66966
ltoes 5.02744
327
root 14.8443 1.25463 0.855838 -678.298 -86.1114 -153.756
lowerback 25.6267 -4.03008 5.98607
upperback 15.9802 -5.67843 -0.536259
thorax 3.18803 -3.32053 -2.74259
lowerneck 11.9665 5.41358 -5.41944
upperneck 14.1413 6.20523 -1.09327
head 2.40065 2.48908 0.437276
rclavicle 3.18055e-014 -1.23644e-013
rhumerus -24.8043 -29.2601 -77.7768
rradius 11.4149
rwrist 57.1206
rhand -10.2005 -349.6
rfingers 7.12502
rthumb 15.7906 -378.976
lclavicle 3.18055e-014 -1.23644e-013
lhumerus -386.28 3.93021 -278.78
lradius 31.0722
lwrist -30.2669
lhand -4.50084 355.049
lfingers 7.12502
lthumb 21.2729 383.901
rfemur 167.931 -173.776 192.48
rtibia 73.4746
rfoot 21.2008 4.30756
rtoes 2.1105
lfemur -15.0295 -3.98106 -7.78164
ltibia 74.0119
lfoot 25.0275 2.59175
ltoes 5.33639
328
root 14.858 1.24979 0.870656 -680.188 -85.9997 -152.275
lowerback 25.8226 -4.03956 5.999
upperback 15.7856 -5.64345 -0.447519
thorax 2.88115 -3.30474 -2.63308
lowerneck 11.3753 5.24169 -5.52273
upperneck 14.2933 6.02131 -0.959318
head 2.54413 2.39508 0.518742
rclavicle 6.67916e-014 -8.15017e-014
rhumerus -25.3589 -30.6912 -76.6881
rradius 11.1074
rwrist 58.2396
rhand -10.2567 -349.961
rfingers 7.12502
rthumb 15.7365 -379.342
lclavicle 6.67916e-014 -8.15017e-014
lhumerus -386.707 4.88474 -278.838
lradius 30.8418
lwrist -31.1409
lhand -3.94206 355.332
lfingers 7.12502
lthumb 21.8096 384.123
rfemur 168.238 -173.626 192.32
rtibia 73.8413
rfoot 20.5859 4.46294
rtoes 2.02771
lfemur -14.7347 -3.92698 -7.75172
ltibia 74.2604
lfoot 25.2458 2.54349
ltoes 5.43057
329
root 14.8684 1.24533 0.886161 -682.439 -85.9116 -150.428
lowerback 26.051 -4.0453 6.02669
upperback 15.5891 -5.59571 -0.400535
thorax 2.55373 -3.27881 -2.57803
lowerneck 10.7926 5.0574 -5.59081
upperneck 14.4093 5.82117 -0.789783
head 2.67598 2.29841 0.605024
rclavicle 1.11319e-014 2.46493e-014
rhumerus -26.0896 -32.4188 -75.4358
rradius 10.8182
rwrist 59.6265
rhand -10.3612 -350.219
rfingers 7.12502
rthumb 15.6358 -379.607
lclavicle 1.11319e-014 2.46493e-014
lhumerus -387.19 5.67057 -278.946
lradius 30.6854
lwrist -31.8915
lhand -3.34539 355.642
lfingers 7.12502
lthumb 22.3825 384.365
rfemur 168.546 -173.478 192.099
rtibia 74.1802
rfoot 19.9849 4.61102
rtoes 1.92707
lfemur -14.4352 -3.85042 -7.76428
ltibia 74.495
lfoot 25.409 2.43477
ltoes 5.17748
330
root 14.8776 1.2421 0.901188 -684.393 -85.8241 -148.901
lowerback 26.3225 -4.04946 6.03847
upperback 15.3998 -5.54941 -0.356473
thorax 2.21625 -3.25649 -2.51505
lowerneck 10.2973 4.88096 -5.62692
upperneck 14.4505 5.62759 -0.653861
head 2.77113 2.20907 0.671316
rclavicle 4.77083e-014 1.59028e-015
rhumerus -26.9277 -34.0544 -74.1093
rradius 10.5278
rwrist 60.9994
rhand -10.4876 -350.397
rfingers 7.12502
rthumb 15.514 -379.794
lclavicle 4.77083e-014 1.59028e-015
lhumerus -387.725 6.42278 -279.091
lradius 30.5606
lwrist -32.5996
lhand -2.85306 355.912
lfingers 7.12502
lthumb 22.855 384.577
rfemur 168.898 -173.35 191.892
rtibia 74.4755
rfoot 19.4252 4.83546
rtoes 1.91541
lfemur -14.0887 -3.77939 -7.76995
ltibia 74.7003
lfoot 25.5717 2.37401
ltoes 5.14938
331
root 14.8839 1.23858 0.915155 -686.841 -85.758 -146.869
lowerback 26.6257 -4.04655 6.01325
upperback 15.2089 -5.49942 -0.34641
thorax 1.86198 -3.2334 -2.46747
lowerneck 9.83995 4.68726 -5.60797
upperneck 14.4137 5.41298 -0.537646
head 2.83654 2.1156 0.719774
rclavicle 2.46493e-014 5.56597e-015
rhumerus -27.9703 -35.936 -72.5683
rradius 10.2456
rwrist 62.6691
rhand -10.6087 -350.376
rfingers 7.12502
rthumb 15.3975 -379.783
lclavicle 2.46493e-014 5.56597e-015
lhumerus -388.28 7.11176 -279.287
lradius 30.4397
lwrist -33.3319
lhand -2.4078 356.142
lfingers 7.12502
lthumb 23.2822 384.754
rfemur 169.239 -173.216 191.631
rtibia 74.7582
rfoot 18.8786 5.10512
rtoes 1.84866
lfemur -13.7357 -3.69731 -7.82502
ltibia 74.8786
lfoot 25.7278 2.23377
ltoes 5.03595
332
root 14.8893 1.23606 0.926506 -688.868 -85.6626 -145.273
lowerback 26.9702 -4.03757 5.97335
upperback 15.0149 -5.4442 -0.304706
thorax 1.49081 -3.21146 -2.3765
lowerneck 9.48246 4.51113 -5.62056
upperneck 14.2854 5.21006 -0.437307
head 2.85381 2.02922 0.763712
rclavicle 4.21423e-014 -1.63401e-013
rhumerus -28.2703 -35.9195 -72.224
rradius 9.83423
rwrist 62.3532
rhand -10.7724 -350.764
rfingers 7.12502
rthumb 15.2397 -380.183
lclavicle 4.21423e-014 -1.63401e-013
lhumerus -388.848 7.75138 -279.495
lradius 30.2941
lwrist -34.0253
lhand -2.0611 356.305
lfingers 7.12502
lthumb 23.6148 384.875
rfemur 169.613 -173.096 191.433
rtibia 75.0082
rfoot 18.3357 5.36562
rtoes 1.87095
lfemur -13.359 -3.59586 -7.81221
ltibia 75.0206
lfoot 25.9012 2.00406
ltoes 5.03581
333
root 14.8948 1.23341 0.93518 -690.935 -85.58 -143.614
lowerback 27.3112 -4.00488 5.89392
upperback 14.8338 -5.36896 -0.267386
thorax 1.14003 -3.1809 -2.27548
lowerneck 9.1397 4.32442 -5.62209
upperneck 14.1027 4.99009 -0.307729
head 2.85028 1.93853 0.81384
rclavicle 9.54166e-015 -6.08281e-014
rhumerus -28.4932 -35.9475 -71.9228
rradius 9.29585
rwrist 62.112
rhand -10.9834 -351.035
rfingers 7.12502
rthumb 15.0365 -380.469
lclavicle 9.54166e-015 -6.08281e-014
lhumerus -389.38 8.25733 -279.709
lradius 30.1486
lwrist -34.721
lhand -1.78541 356.49
lfingers 7.12502
lthumb 23.8792 385.026
rfemur 169.974 -172.983 191.243
rtibia 75.2302
rfoot 17.8043 5.65311
rtoes 1.803
lfemur -13.0012 -3.47131 -7.79468
ltibia 75.1319
lfoot 26.0786 1.77209
ltoes 4.9609
334
root 14.8985 1.23172 0.943672 -692.979 -85.505 -141.99
lowerback 27.6872 -3.9727 5.79448
upperback 14.6509 -5.2991 -0.228101
thorax 0.773006 -3.15509 -2.1581
lowerneck 8.89349 4.14765 -5.64946
upperneck 13.8062 4.7753 -0.214825
head 2.79215 1.85192 0.851955
rclavicle -3.26007e-014 3.53837e-014
rhumerus -28.7042 -35.943 -71.6149
rradius 8.68557
rwrist 61.9611
rhand -11.2577 -351.325
rfingers 7.12502
rthumb 14.7723 -380.778
lclavicle -3.26007e-014 3.53837e-014
lhumerus -389.834 8.69468 -279.936
lradius 29.8325
lwrist -35.3744
lhand -1.71341 356.623
lfingers 7.12502
lthumb 23.9482 385.149
rfemur 170.364 -172.867 191.031
rtibia 75.4188
rfoot 17.291 6.00053
rtoes 1.79296
lfemur -12.6036 -3.35991 -7.79618
ltibia 75.2054
lfoot 26.2085 1.54495
ltoes 4.89428
335
root 14.9052 1.23041 0.952627 -694.788 -85.4197 -140.556
lowerback 28.0391 -3.95723 5.74168
upperback 14.46 -5.24103 -0.210463
thorax 0.402854 -3.13008 -2.08907
lowerneck 8.65206 3.98446 -5.70144
upperneck 13.5121 4.5734 -0.0841181
head 2.73319 1.771 0.906028
rclavicle -1.51076e-014 2.3059e-014
rhumerus -28.856 -35.9405 -71.3632
rradius 7.96835
rwrist 61.8454
rhand -11.5827 -351.581
rfingers 7.12502
rthumb 14.4591 -381.057
lclavicle -1.51076e-014 2.3059e-014
lhumerus -390.18 9.14488 -280.219
lradius 29.3255
lwrist -36.0535
lhand -1.81176 356.67
lfingers 7.12502
lthumb 23.8539 385.209
rfemur 170.733 -172.77 190.85
rtibia 75.556
rfoot 16.7945 6.27965
rtoes 1.95517
lfemur -12.2301 -3.24324 -7.78687
ltibia 75.2258
lfoot 26.3661 1.27924
ltoes 5.14483
336
root 14.9135 1.22957 0.960743 -696.541 -85.3352 -139.17
lowerback 28.3886 -3.93852 5.70259
upperback 14.2812 -5.17747 -0.196469
thorax 0.0477686 -3.10101 -2.03506
lowerneck 8.41115 3.82832 -5.81931
upperneck 13.1784 4.373 0.101261
head 2.65921 1.69063 0.988102
rclavicle 2.38542e-015 -1.22849e-013
rhumerus -29.0645 -35.9444 -71.0648
rradius 7.33705
rwrist 61.8117
rhand -11.8638 -351.882
rfingers 7.12502
rthumb 14.1883 -381.377
lclavicle 2.38542e-015 -1.22849e-013
lhumerus -390.466 9.66428 -280.543
lradius 28.7357
lwrist -36.9548
lhand -2.04198 356.685
lfingers 7.12502
lthumb 23.6331 385.253
rfemur 171.102 -172.683 190.679
rtibia 75.6603
rfoot 16.3106 6.58478
rtoes 2.11923
lfemur -11.8504 -3.11926 -7.77227
ltibia 75.2064
lfoot 26.5194 1.00137
ltoes 5.11523
337
root 14.9223 1.229 0.969509 -698.269 -85.2517 -137.771
lowerback 28.7251 -3.92703 5.67013
upperback 14.0823 -5.12017 -0.183881
thorax -0.324831 -3.07345 -1.98498
lowerneck 8.24499 3.67573 -5.97183
upperneck 12.771 4.16929 0.282072
head 2.54854 1.60876 1.07177
rclavicle -4.69132e-014 -2.52457e-014
rhumerus -29.3581 -35.8977 -70.6925
rradius 6.78609
rwrist 61.9023
rhand -12.1021 -352.085
rfingers 7.12502
rthumb 13.9586 -381.596
lclavicle -4.69132e-014 -2.52457e-014
lhumerus -390.828 10.1679 -280.88
lradius 28.2523
lwrist -37.8603
lhand -2.2818 356.713
lfingers 7.12502
lthumb 23.4031 385.31
rfemur 171.461 -172.588 190.492
rtibia 75.7225
rfoot 15.889 6.88571
rtoes 2.53063
lfemur -11.4813 -3.01879 -7.77822
ltibia 75.1382
lfoot 26.6077 0.782294
ltoes 4.93866
338
root 14.9317 1.22925 0.977243 -699.857 -85.1735 -136.499
lowerback 29.067 -3.91756 5.6422
upperback 13.8789 -5.0644 -0.181671
thorax -0.705924 -3.04577 -1.94854
lowerneck 8.07186 3.53305 -6.15836
upperneck 12.3641 3.97667 0.483278
head 2.43971 1.53089 1.16802
rclavicle 1.03368e-014 -3.18055e-015
rhumerus -29.8167 -35.7922 -70.2321
rradius 6.46205
rwrist 62.0191
rhand -12.2249 -352.3
rfingers 7.12502
rthumb 13.8402 -381.82
lclavicle 1.03368e-014 -3.18055e-015
lhumerus -391.223 10.5701 -281.231
lradius 27.8138
lwrist -38.6976
lhand -2.53435 356.711
lfingers 7.12502
lthumb 23.1608 385.339
rfemur 171.815 -172.52 190.329
rtibia 75.758
rfoot 15.4471 7.12664
rtoes 2.79827
lfemur -11.1078 -2.89363 -7.77547
ltibia 75.0285
lfoot 26.6533 0.51553
ltoes 4.36242
339
root 14.9424 1.22977 0.984727 -701.409 -85.0859 -135.22
lowerback 29.3557 -3.90722 5.60409
upperback 13.6901 -5.01548 -0.173197
thorax -1.04545 -3.02151 -1.90258
lowerneck 7.87154 3.40241 -6.37075
upperneck 11.9552 3.80237 0.686181
head 2.33555 1.46104 1.26987
rclavicle 2.06736e-014 -4.4329e-014
rhumerus -30.2937 -35.6617 -69.7623
rradius 6.26217
rwrist 62.2928
rhand -12.2644 -352.5
rfingers 7.12502
rthumb 13.8022 -382.022
lclavicle 2.06736e-014 -4.4329e-014
lhumerus -391.609 10.9961 -281.607
lradius 27.429
lwrist -39.6417
lhand -2.77994 356.683
lfingers 7.12502
lthumb 22.9251 385.34
rfemur 172.136 -172.453 190.174
rtibia 75.765
rfoot 15.047 7.31148
rtoes 2.96729
lfemur -10.7493 -2.77592 -7.7695
ltibia 74.8675
lfoot 26.7326 0.271542
ltoes 3.78936
340
root 14.9553 1.23144 0.991803 -702.717 -85.0014 -134.153
lowerback 29.6274 -3.8938 5.56453
upperback 13.4833 -4.96155 -0.156441
thorax -1.39665 -2.99385 -1.84897
lowerneck 7.71901 3.27906 -6.59192
upperneck 11.5156 3.63427 0.885013
head 2.21437 1.39423 1.37073
rclavicle -1.74931e-014 4.63168e-014
rhumerus -30.7265 -35.5265 -69.3165
rradius 6.03173
rwrist 62.6399
rhand -12.2977 -352.77
rfingers 7.12502
rthumb 13.7701 -382.294
lclavicle -1.74931e-014 4.63168e-014
lhumerus -392.046 11.4324 -281.996
lradius 27.0742
lwrist -40.5959
lhand -2.98203 356.556
lfingers 7.12502
lthumb 22.7312 385.237
rfemur 172.454 -172.404 190.044
rtibia 75.7351
rfoot 14.6574 7.45214
rtoes 2.93428
lfemur -10.3936 -2.63047 -7.74881
ltibia 74.6593
lfoot 26.8884 0.0417189
ltoes 3.52463
